<svg width="22" height="22" viewBox="0 0 22 22" fill="none" xmlns="http://www.w3.org/2000/svg">
<path d="M11 21.95C10.7834 21.95 10.6042 21.8792 10.4625 21.7375C10.3209 21.5958 10.25 21.4167 10.25 21.2V20.075C7.96672 19.8417 6.06672 18.9667 4.55005 17.45C3.03338 15.9333 2.15838 14.0333 1.92505 11.75H0.800049C0.583382 11.75 0.404216 11.6792 0.262549 11.5375C0.120882 11.3958 0.0500488 11.2167 0.0500488 11C0.0500488 10.7833 0.120882 10.6042 0.262549 10.4625C0.404216 10.3208 0.583382 10.25 0.800049 10.25H1.92505C2.15838 7.96665 3.03338 6.06665 4.55005 4.54999C6.06672 3.03332 7.96672 2.15832 10.25 1.92499V0.799988C10.25 0.583321 10.3209 0.404155 10.4625 0.262488C10.6042 0.120821 10.7834 0.0499878 11 0.0499878C11.2167 0.0499878 11.3959 0.120821 11.5375 0.262488C11.6792 0.404155 11.75 0.583321 11.75 0.799988V1.92499C14.0334 2.15832 15.9334 3.03332 17.4501 4.54999C18.9667 6.06665 19.8417 7.96665 20.0751 10.25H21.2001C21.4167 10.25 21.5959 10.3208 21.7375 10.4625C21.8792 10.6042 21.9501 10.7833 21.9501 11C21.9501 11.2167 21.8792 11.3958 21.7375 11.5375C21.5959 11.6792 21.4167 11.75 21.2001 11.75H20.0751C19.8417 14.0333 18.9667 15.9333 17.4501 17.45C15.9334 18.9667 14.0334 19.8417 11.75 20.075V21.2C11.75 21.4167 11.6792 21.5958 11.5375 21.7375C11.3959 21.8792 11.2167 21.95 11 21.95ZM11 18.6C13.0834 18.6 14.8709 17.8542 16.3625 16.3625C17.8542 14.8708 18.6 13.0833 18.6 11C18.6 8.91665 17.8542 7.12915 16.3625 5.63749C14.8709 4.14582 13.0834 3.39999 11 3.39999C8.91672 3.39999 7.12922 4.14582 5.63755 5.63749C4.14588 7.12915 3.40005 8.91665 3.40005 11C3.40005 13.0833 4.14588 14.8708 5.63755 16.3625C7.12922 17.8542 8.91672 18.6 11 18.6ZM11 14.75C9.95005 14.75 9.06255 14.3875 8.33755 13.6625C7.61255 12.9375 7.25005 12.05 7.25005 11C7.25005 9.94999 7.61255 9.06249 8.33755 8.33749C9.06255 7.61249 9.95005 7.24999 11 7.24999C12.05 7.24999 12.9375 7.61249 13.6625 8.33749C14.3875 9.06249 14.75 9.94999 14.75 11C14.75 12.05 14.3875 12.9375 13.6625 13.6625C12.9375 14.3875 12.05 14.75 11 14.75Z" fill="#40090C"/>
</svg>
