<svg width="24" height="24" viewBox="0 0 24 24" fill="none" xmlns="http://www.w3.org/2000/svg">
<path d="M4.5 21C4.1 21 3.75 20.85 3.45 20.55C3.15 20.25 3 19.9 3 19.5V4.5C3 4.1 3.15 3.75 3.45 3.45C3.75 3.15 4.1 3 4.5 3H16.05L21 7.95V19.5C21 19.9 20.85 20.25 20.55 20.55C20.25 20.85 19.9 21 19.5 21H4.5ZM4.5 19.5H19.5V8.775H15.975C15.7583 8.775 15.5792 8.70417 15.4375 8.5625C15.2958 8.42083 15.225 8.24167 15.225 8.025V4.5H4.5V19.5ZM7.725 16.725H16.275C16.4917 16.725 16.6708 16.6542 16.8125 16.5125C16.9542 16.3708 17.025 16.1917 17.025 15.975C17.025 15.7583 16.9542 15.5792 16.8125 15.4375C16.6708 15.2958 16.4917 15.225 16.275 15.225H7.725C7.50833 15.225 7.32917 15.2958 7.1875 15.4375C7.04583 15.5792 6.975 15.7583 6.975 15.975C6.975 16.1917 7.04583 16.3708 7.1875 16.5125C7.32917 16.6542 7.50833 16.725 7.725 16.725ZM7.725 8.775H11.25C11.4667 8.775 11.6458 8.70417 11.7875 8.5625C11.9292 8.42083 12 8.24167 12 8.025C12 7.80833 11.9292 7.62917 11.7875 7.4875C11.6458 7.34583 11.4667 7.275 11.25 7.275H7.725C7.50833 7.275 7.32917 7.34583 7.1875 7.4875C7.04583 7.62917 6.975 7.80833 6.975 8.025C6.975 8.24167 7.04583 8.42083 7.1875 8.5625C7.32917 8.70417 7.50833 8.775 7.725 8.775ZM7.725 12.75H16.275C16.4917 12.75 16.6708 12.6792 16.8125 12.5375C16.9542 12.3958 17.025 12.2167 17.025 12C17.025 11.7833 16.9542 11.6042 16.8125 11.4625C16.6708 11.3208 16.4917 11.25 16.275 11.25H7.725C7.50833 11.25 7.32917 11.3208 7.1875 11.4625C7.04583 11.6042 6.975 11.7833 6.975 12C6.975 12.2167 7.04583 12.3958 7.1875 12.5375C7.32917 12.6792 7.50833 12.75 7.725 12.75ZM4.5 4.5V8.775V4.5V19.5V4.5Z" fill="#B61B23"/>
</svg>
