<svg width="24" height="24" viewBox="0 0 24 24" fill="none" xmlns="http://www.w3.org/2000/svg">
<path d="M15.675 21.3L6.90005 12.525C6.81672 12.4417 6.75838 12.3584 6.72505 12.275C6.69172 12.1917 6.67505 12.1 6.67505 12C6.67505 11.9 6.69172 11.8084 6.72505 11.725C6.75838 11.6417 6.81672 11.5584 6.90005 11.475L15.675 2.70005C15.8584 2.51672 16.0917 2.42505 16.375 2.42505C16.6584 2.42505 16.8917 2.51672 17.075 2.70005C17.275 2.90005 17.375 3.13755 17.375 3.41255C17.375 3.68755 17.275 3.92505 17.075 4.12505L9.20005 12L17.075 19.875C17.2917 20.0917 17.3917 20.3334 17.375 20.6C17.3584 20.8667 17.2584 21.0917 17.075 21.275C16.875 21.475 16.6375 21.5751 16.3625 21.5751C16.0875 21.5751 15.8584 21.4834 15.675 21.3Z" fill="#40090C"/>
</svg>
