<svg width="24" height="24" viewBox="0 0 24 24" fill="none" xmlns="http://www.w3.org/2000/svg">
<path d="M9.575 9.125V14.875C9.575 15.175 9.70417 15.4 9.9625 15.55C10.2208 15.7 10.475 15.6917 10.725 15.525L15.25 12.625C15.4833 12.475 15.6 12.2667 15.6 12C15.6 11.7333 15.4833 11.525 15.25 11.375L10.725 8.475C10.475 8.30833 10.2208 8.3 9.9625 8.45C9.70417 8.6 9.575 8.825 9.575 9.125ZM12 22C10.6333 22 9.34167 21.7375 8.125 21.2125C6.90833 20.6875 5.84583 19.9708 4.9375 19.0625C4.02917 18.1542 3.3125 17.0917 2.7875 15.875C2.2625 14.6583 2 13.3667 2 12C2 10.6333 2.2625 9.34167 2.7875 8.125C3.3125 6.90833 4.02917 5.84583 4.9375 4.9375C5.84583 4.02917 6.90833 3.3125 8.125 2.7875C9.34167 2.2625 10.6333 2 12 2C13.3667 2 14.6583 2.2625 15.875 2.7875C17.0917 3.3125 18.1542 4.02917 19.0625 4.9375C19.9708 5.84583 20.6875 6.90833 21.2125 8.125C21.7375 9.34167 22 10.6333 22 12C22 13.3667 21.7375 14.6583 21.2125 15.875C20.6875 17.0917 19.9708 18.1542 19.0625 19.0625C18.1542 19.9708 17.0917 20.6875 15.875 21.2125C14.6583 21.7375 13.3667 22 12 22Z" fill="white"/>
</svg>
