<svg width="24" height="24" viewBox="0 0 24 24" fill="none" xmlns="http://www.w3.org/2000/svg">
<g clip-path="url(#clip0_1193_14608)">
<path d="M12 0C7.038 0 3 4.066 3 9.065C3 16.168 11.154 23.502 11.501 23.81C11.644 23.937 11.822 24 12 24C12.178 24 12.356 23.937 12.499 23.811C12.846 23.502 21 16.168 21 9.065C21 4.066 16.962 0 12 0ZM12 14C9.243 14 7 11.757 7 9C7 6.243 9.243 4 12 4C14.757 4 17 6.243 17 9C17 11.757 14.757 14 12 14Z" fill="#B61B23"/>
<rect x="5" y="2" width="14" height="14" rx="7" fill="white"/>
<path d="M7.93125 13.6641C7.75625 13.6641 7.62301 13.6044 7.53153 13.4851C7.44006 13.3658 7.41818 13.2186 7.46591 13.0436C7.58523 12.5822 7.68068 12.091 7.75227 11.57C7.82386 11.049 7.86761 10.4862 7.88352 9.88167C7.54943 9.77826 7.27699 9.57144 7.06619 9.26122C6.8554 8.95099 6.75 8.60497 6.75 8.22315V7.91292C6.75 7.80156 6.7858 7.69218 6.85739 7.58479C6.92898 7.47741 7.02045 7.40383 7.13182 7.36406C8.15795 6.95837 9.06875 6.45923 9.8642 5.86661C10.6597 5.274 11.2443 4.81065 11.6182 4.47656C11.6739 4.42883 11.7355 4.39303 11.8031 4.36917C11.8707 4.34531 11.9364 4.33337 12 4.33337C12.0636 4.33337 12.1293 4.34531 12.1969 4.36917C12.2645 4.39303 12.3261 4.42883 12.3818 4.47656C12.7557 4.81065 13.3403 5.274 14.1358 5.86661C14.9312 6.45923 15.842 6.95837 16.8682 7.36406C16.9795 7.40383 17.071 7.47741 17.1426 7.58479C17.2142 7.69218 17.25 7.80156 17.25 7.91292V8.22315C17.25 8.60497 17.1466 8.95099 16.9398 9.26122C16.733 9.57144 16.4625 9.77826 16.1284 9.88167C16.1443 10.4624 16.1841 11.0152 16.2477 11.5402C16.3114 12.0652 16.4068 12.5663 16.5341 13.0436C16.5818 13.2186 16.5619 13.3658 16.4744 13.4851C16.3869 13.6044 16.2557 13.6641 16.0807 13.6641H7.93125ZM8.53977 7.50724H15.4602C14.8795 7.21292 14.3028 6.8669 13.7301 6.46917C13.1574 6.07144 12.5807 5.61406 12 5.09701C11.4511 5.59019 10.8864 6.03962 10.3057 6.44531C9.725 6.85099 9.13636 7.20497 8.53977 7.50724ZM13.229 9.23735C13.4835 9.23735 13.6903 9.13593 13.8494 8.93309C14.0085 8.73025 14.0881 8.4936 14.0881 8.22315H12.358C12.358 8.4936 12.4395 8.73025 12.6026 8.93309C12.7656 9.13593 12.9744 9.23735 13.229 9.23735ZM10.783 9.23735C11.0375 9.23735 11.2443 9.13593 11.4034 8.93309C11.5625 8.73025 11.642 8.4936 11.642 8.22315H9.91193C9.91193 8.4936 9.99347 8.73025 10.1565 8.93309C10.3196 9.13593 10.5284 9.23735 10.783 9.23735ZM8.33693 9.23735C8.59148 9.23735 8.7983 9.13593 8.95739 8.93309C9.11648 8.73025 9.19602 8.4936 9.19602 8.22315H7.46591C7.46591 8.4936 7.54744 8.73025 7.71051 8.93309C7.87358 9.13593 8.08239 9.23735 8.33693 9.23735ZM8.24148 12.9481H9.82841C9.89205 12.5425 9.94773 12.101 9.99545 11.6237C10.0432 11.1464 10.0869 10.5538 10.1267 9.84587C10.0392 9.8061 9.93778 9.7365 9.82244 9.63707C9.7071 9.53764 9.62955 9.44417 9.58977 9.35667C9.45455 9.51576 9.3054 9.64303 9.14233 9.73849C8.97926 9.83394 8.7983 9.90156 8.59943 9.94133C8.57557 10.5141 8.53381 11.045 8.47415 11.5342C8.41449 12.0234 8.33693 12.4947 8.24148 12.9481ZM10.5682 12.9481H13.4437C13.3801 12.5345 13.3284 12.0891 13.2886 11.6118C13.2489 11.1345 13.2131 10.5737 13.1813 9.9294C12.9188 9.91349 12.6781 9.84786 12.4594 9.73252C12.2406 9.61718 12.0756 9.46008 11.9642 9.26122C11.8528 9.46008 11.6977 9.61718 11.4989 9.73252C11.3 9.84786 11.0773 9.91349 10.8307 9.9294C10.7989 10.4385 10.7651 10.9436 10.7293 11.4447C10.6935 11.9459 10.6398 12.447 10.5682 12.9481ZM14.1716 12.9481H15.7705C15.6591 12.4629 15.5756 11.9717 15.5199 11.4746C15.4642 10.9774 15.4284 10.4663 15.4125 9.94133C15.2216 9.90156 15.0526 9.83593 14.9054 9.74445C14.7582 9.65298 14.617 9.52372 14.4818 9.35667C14.4023 9.46803 14.3068 9.56747 14.1955 9.65497C14.0841 9.74247 13.9807 9.8061 13.8852 9.84587C13.9091 10.2993 13.9429 10.7785 13.9866 11.2837C14.0304 11.7888 14.092 12.3436 14.1716 12.9481ZM15.675 9.23735C15.9295 9.23735 16.1364 9.13593 16.2955 8.93309C16.4545 8.73025 16.5341 8.4936 16.5341 8.22315H14.804C14.804 8.4936 14.8855 8.73025 15.0486 8.93309C15.2116 9.13593 15.4205 9.23735 15.675 9.23735Z" fill="#FFC020"/>
</g>
<defs>
<clipPath id="clip0_1193_14608">
<rect width="24" height="24" fill="white"/>
</clipPath>
</defs>
</svg>
