<svg width="16" height="16" viewBox="0 0 16 16" fill="none" xmlns="http://www.w3.org/2000/svg">
<path d="M8 9.33325C7.81111 9.33325 7.65278 9.26936 7.525 9.14158C7.39722 9.01381 7.33333 8.85547 7.33333 8.66658C7.33333 8.4777 7.39722 8.31936 7.525 8.19159C7.65278 8.06381 7.81111 7.99992 8 7.99992C8.18889 7.99992 8.34722 8.06381 8.475 8.19159C8.60278 8.31936 8.66667 8.4777 8.66667 8.66658C8.66667 8.85547 8.60278 9.01381 8.475 9.14158C8.34722 9.26936 8.18889 9.33325 8 9.33325ZM5.33333 9.33325C5.14444 9.33325 4.98611 9.26936 4.85833 9.14158C4.73056 9.01381 4.66667 8.85547 4.66667 8.66658C4.66667 8.4777 4.73056 8.31936 4.85833 8.19159C4.98611 8.06381 5.14444 7.99992 5.33333 7.99992C5.52222 7.99992 5.68056 8.06381 5.80833 8.19159C5.93611 8.31936 6 8.4777 6 8.66658C6 8.85547 5.93611 9.01381 5.80833 9.14158C5.68056 9.26936 5.52222 9.33325 5.33333 9.33325ZM10.6667 9.33325C10.4778 9.33325 10.3194 9.26936 10.1917 9.14158C10.0639 9.01381 10 8.85547 10 8.66658C10 8.4777 10.0639 8.31936 10.1917 8.19159C10.3194 8.06381 10.4778 7.99992 10.6667 7.99992C10.8556 7.99992 11.0139 8.06381 11.1417 8.19159C11.2694 8.31936 11.3333 8.4777 11.3333 8.66658C11.3333 8.85547 11.2694 9.01381 11.1417 9.14158C11.0139 9.26936 10.8556 9.33325 10.6667 9.33325ZM8 11.9999C7.81111 11.9999 7.65278 11.936 7.525 11.8083C7.39722 11.6805 7.33333 11.5221 7.33333 11.3333C7.33333 11.1444 7.39722 10.986 7.525 10.8583C7.65278 10.7305 7.81111 10.6666 8 10.6666C8.18889 10.6666 8.34722 10.7305 8.475 10.8583C8.60278 10.986 8.66667 11.1444 8.66667 11.3333C8.66667 11.5221 8.60278 11.6805 8.475 11.8083C8.34722 11.936 8.18889 11.9999 8 11.9999ZM5.33333 11.9999C5.14444 11.9999 4.98611 11.936 4.85833 11.8083C4.73056 11.6805 4.66667 11.5221 4.66667 11.3333C4.66667 11.1444 4.73056 10.986 4.85833 10.8583C4.98611 10.7305 5.14444 10.6666 5.33333 10.6666C5.52222 10.6666 5.68056 10.7305 5.80833 10.8583C5.93611 10.986 6 11.1444 6 11.3333C6 11.5221 5.93611 11.6805 5.80833 11.8083C5.68056 11.936 5.52222 11.9999 5.33333 11.9999ZM10.6667 11.9999C10.4778 11.9999 10.3194 11.936 10.1917 11.8083C10.0639 11.6805 10 11.5221 10 11.3333C10 11.1444 10.0639 10.986 10.1917 10.8583C10.3194 10.7305 10.4778 10.6666 10.6667 10.6666C10.8556 10.6666 11.0139 10.7305 11.1417 10.8583C11.2694 10.986 11.3333 11.1444 11.3333 11.3333C11.3333 11.5221 11.2694 11.6805 11.1417 11.8083C11.0139 11.936 10.8556 11.9999 10.6667 11.9999ZM3 14.6666C2.73333 14.6666 2.5 14.5666 2.3 14.3666C2.1 14.1666 2 13.9333 2 13.6666V3.33325C2 3.06659 2.1 2.83325 2.3 2.63325C2.5 2.43325 2.73333 2.33325 3 2.33325H4.08333V1.86659C4.08333 1.71103 4.13333 1.58325 4.23333 1.48325C4.33333 1.38325 4.46111 1.33325 4.61667 1.33325C4.77222 1.33325 4.90278 1.38325 5.00833 1.48325C5.11389 1.58325 5.16667 1.71103 5.16667 1.86659V2.33325H10.8333V1.86659C10.8333 1.71103 10.8833 1.58325 10.9833 1.48325C11.0833 1.38325 11.2111 1.33325 11.3667 1.33325C11.5222 1.33325 11.6528 1.38325 11.7583 1.48325C11.8639 1.58325 11.9167 1.71103 11.9167 1.86659V2.33325H13C13.2667 2.33325 13.5 2.43325 13.7 2.63325C13.9 2.83325 14 3.06659 14 3.33325V13.6666C14 13.9333 13.9 14.1666 13.7 14.3666C13.5 14.5666 13.2667 14.6666 13 14.6666H3ZM3 13.6666H13V6.49992H3V13.6666Z" fill="#240507" fill-opacity="0.4"/>
</svg>
