<svg width="16" height="16" viewBox="0 0 16 16" fill="none" xmlns="http://www.w3.org/2000/svg">
<g clip-path="url(#clip0_1193_14451)">
<path d="M14.2581 4.3553C13.7341 3.83249 13.0341 3.46749 12.2216 3.2928C12.1454 3.27641 12.0741 3.24244 12.0134 3.19361C11.9527 3.14478 11.9042 3.08244 11.8719 3.01155C11.5731 2.35897 11.1207 1.78844 10.5534 1.34874C9.8275 0.793429 8.94469 0.499992 8 0.499992C6.92354 0.496574 5.88347 0.889463 5.07812 1.60374C4.32188 2.27749 3.79969 3.20812 3.56469 4.28593C3.54509 4.37716 3.50043 4.46112 3.43573 4.52836C3.37103 4.5956 3.28885 4.64346 3.19844 4.66655C2.41719 4.86343 2.0825 5.05843 1.66062 5.43405C1.0625 5.96655 0.75 6.69187 0.75 7.52499C0.75 8.47968 1.10094 9.26374 1.76469 9.79249C2.34625 10.2553 3.14062 10.5 4.0625 10.5H11.375C12.4125 10.5 13.3784 10.1419 14.0938 9.49124C14.8387 8.81468 15.25 7.87655 15.25 6.84999C15.25 5.86593 14.9062 5.00343 14.2581 4.3553ZM3.5 14C3.40951 13.9999 3.32073 13.9753 3.24313 13.9288C3.16553 13.8822 3.10201 13.8155 3.05935 13.7357C3.01669 13.6559 2.99649 13.566 3.00089 13.4756C3.0053 13.3853 3.03415 13.2978 3.08437 13.2225L4.08437 11.7225C4.12082 11.6679 4.16766 11.621 4.22223 11.5844C4.2768 11.5479 4.33803 11.5225 4.40242 11.5097C4.46681 11.4968 4.53311 11.4968 4.59752 11.5095C4.66193 11.5223 4.72319 11.5476 4.77781 11.5841C4.83243 11.6205 4.87934 11.6673 4.91586 11.7219C4.95238 11.7765 4.97779 11.8377 4.99065 11.9021C5.0035 11.9665 5.00355 12.0328 4.99078 12.0972C4.97802 12.1616 4.95269 12.2229 4.91625 12.2775L3.91625 13.7775C3.87055 13.846 3.80865 13.9021 3.73603 13.9409C3.66342 13.9798 3.58234 14 3.5 14ZM5 15.5C4.90954 15.4999 4.8208 15.4752 4.74324 15.4287C4.66568 15.3821 4.60221 15.3154 4.55959 15.2356C4.51697 15.1558 4.49679 15.0659 4.50121 14.9756C4.50563 14.8852 4.53448 14.7977 4.58469 14.7225L6.58469 11.7225C6.62113 11.6679 6.66797 11.621 6.72254 11.5844C6.77711 11.5479 6.83834 11.5225 6.90273 11.5097C6.96713 11.4968 7.03342 11.4968 7.09783 11.5095C7.16224 11.5223 7.2235 11.5476 7.27812 11.5841C7.33275 11.6205 7.37966 11.6673 7.41617 11.7219C7.45269 11.7765 7.4781 11.8377 7.49096 11.9021C7.50381 11.9665 7.50386 12.0328 7.4911 12.0972C7.47833 12.1616 7.453 12.2229 7.41656 12.2775L5.41656 15.2775C5.37084 15.346 5.30888 15.4022 5.23621 15.441C5.16353 15.4798 5.08239 15.5001 5 15.5ZM8.5 14C8.40951 13.9999 8.32073 13.9753 8.24313 13.9288C8.16553 13.8822 8.10201 13.8155 8.05935 13.7357C8.01669 13.6559 7.99649 13.566 8.00089 13.4756C8.0053 13.3853 8.03415 13.2978 8.08438 13.2225L9.08438 11.7225C9.15797 11.6122 9.27238 11.5356 9.40242 11.5097C9.53247 11.4837 9.6675 11.5105 9.77781 11.5841C9.88813 11.6577 9.96469 11.7721 9.99065 11.9021C10.0166 12.0321 9.98985 12.1672 9.91625 12.2775L8.91625 13.7775C8.87055 13.846 8.80865 13.9021 8.73603 13.9409C8.66342 13.9798 8.58234 14 8.5 14ZM10 15.5C9.90951 15.4999 9.82073 15.4753 9.74313 15.4288C9.66553 15.3822 9.60201 15.3155 9.55935 15.2357C9.51669 15.1559 9.49649 15.066 9.50089 14.9756C9.5053 14.8853 9.53415 14.7978 9.58438 14.7225L11.5844 11.7225C11.658 11.6122 11.7724 11.5356 11.9024 11.5097C12.0325 11.4837 12.1675 11.5105 12.2778 11.5841C12.3881 11.6577 12.4647 11.7721 12.4906 11.9021C12.5166 12.0321 12.4898 12.1672 12.4163 12.2775L10.4163 15.2775C10.3706 15.346 10.3086 15.4021 10.236 15.4409C10.1634 15.4798 10.0823 15.5 10 15.5Z" fill="#6DC2FF"/>
</g>
<defs>
<clipPath id="clip0_1193_14451">
<rect width="16" height="16" fill="white"/>
</clipPath>
</defs>
</svg>
