<svg width="16" height="16" viewBox="0 0 16 16" fill="none" xmlns="http://www.w3.org/2000/svg">
<path d="M7.99996 7.83325C8.32218 7.83325 8.59718 7.71936 8.82496 7.49159C9.05274 7.26381 9.16663 6.98881 9.16663 6.66659C9.16663 6.34436 9.05274 6.06936 8.82496 5.84159C8.59718 5.61381 8.32218 5.49992 7.99996 5.49992C7.67774 5.49992 7.40274 5.61381 7.17496 5.84159C6.94718 6.06936 6.83329 6.34436 6.83329 6.66659C6.83329 6.98881 6.94718 7.26381 7.17496 7.49159C7.40274 7.71936 7.67774 7.83325 7.99996 7.83325ZM8.01663 14.4666C7.93885 14.4666 7.86663 14.4555 7.79996 14.4333C7.73329 14.411 7.67218 14.3777 7.61663 14.3333C5.96107 12.8777 4.72218 11.5277 3.89996 10.2833C3.07774 9.03881 2.66663 7.8777 2.66663 6.79992C2.66663 5.13325 3.20274 3.80547 4.27496 2.81659C5.34718 1.8277 6.58885 1.33325 7.99996 1.33325C9.41107 1.33325 10.6527 1.8277 11.725 2.81659C12.7972 3.80547 13.3333 5.13325 13.3333 6.79992C13.3333 7.8777 12.9222 9.03881 12.1 10.2833C11.2777 11.5277 10.0388 12.8777 8.38329 14.3333C8.32774 14.3777 8.2694 14.411 8.20829 14.4333C8.14718 14.4555 8.08329 14.4666 8.01663 14.4666Z" fill="#FFC020"/>
</svg>
