<svg width="48" height="48" viewBox="0 0 48 48" fill="none" xmlns="http://www.w3.org/2000/svg">
<path d="M31.35 32.425L25.325 26.4C24.825 26.8333 24.2417 27.1708 23.575 27.4125C22.9083 27.6542 22.2 27.775 21.45 27.775C19.65 27.775 18.125 27.15 16.875 25.9C15.625 24.65 15 23.1417 15 21.375C15 19.6083 15.625 18.1 16.875 16.85C18.125 15.6 19.6417 14.975 21.425 14.975C23.1917 14.975 24.6958 15.6 25.9375 16.85C27.1792 18.1 27.8 19.6083 27.8 21.375C27.8 22.0917 27.6833 22.7833 27.45 23.45C27.2167 24.1167 26.8667 24.7417 26.4 25.325L32.475 31.35C32.625 31.4833 32.7 31.6542 32.7 31.8625C32.7 32.0708 32.6167 32.2583 32.45 32.425C32.3 32.575 32.1167 32.65 31.9 32.65C31.6833 32.65 31.5 32.575 31.35 32.425ZM21.425 26.275C22.775 26.275 23.925 25.7958 24.875 24.8375C25.825 23.8792 26.3 22.725 26.3 21.375C26.3 20.025 25.825 18.8708 24.875 17.9125C23.925 16.9542 22.775 16.475 21.425 16.475C20.0583 16.475 18.8958 16.9542 17.9375 17.9125C16.9792 18.8708 16.5 20.025 16.5 21.375C16.5 22.725 16.9792 23.8792 17.9375 24.8375C18.8958 25.7958 20.0583 26.275 21.425 26.275Z" fill="#240507"/>
</svg>
