<svg width="16" height="16" viewBox="0 0 16 16" fill="none" xmlns="http://www.w3.org/2000/svg">
<path d="M8 9.33331C7.81111 9.33331 7.65278 9.26942 7.525 9.14165C7.39722 9.01387 7.33333 8.85553 7.33333 8.66665C7.33333 8.47776 7.39722 8.31942 7.525 8.19165C7.65278 8.06387 7.81111 7.99998 8 7.99998C8.18889 7.99998 8.34722 8.06387 8.475 8.19165C8.60278 8.31942 8.66667 8.47776 8.66667 8.66665C8.66667 8.85553 8.60278 9.01387 8.475 9.14165C8.34722 9.26942 8.18889 9.33331 8 9.33331ZM5.33333 9.33331C5.14444 9.33331 4.98611 9.26942 4.85833 9.14165C4.73056 9.01387 4.66667 8.85553 4.66667 8.66665C4.66667 8.47776 4.73056 8.31942 4.85833 8.19165C4.98611 8.06387 5.14444 7.99998 5.33333 7.99998C5.52222 7.99998 5.68056 8.06387 5.80833 8.19165C5.93611 8.31942 6 8.47776 6 8.66665C6 8.85553 5.93611 9.01387 5.80833 9.14165C5.68056 9.26942 5.52222 9.33331 5.33333 9.33331ZM10.6667 9.33331C10.4778 9.33331 10.3194 9.26942 10.1917 9.14165C10.0639 9.01387 10 8.85553 10 8.66665C10 8.47776 10.0639 8.31942 10.1917 8.19165C10.3194 8.06387 10.4778 7.99998 10.6667 7.99998C10.8556 7.99998 11.0139 8.06387 11.1417 8.19165C11.2694 8.31942 11.3333 8.47776 11.3333 8.66665C11.3333 8.85553 11.2694 9.01387 11.1417 9.14165C11.0139 9.26942 10.8556 9.33331 10.6667 9.33331ZM8 12C7.81111 12 7.65278 11.9361 7.525 11.8083C7.39722 11.6805 7.33333 11.5222 7.33333 11.3333C7.33333 11.1444 7.39722 10.9861 7.525 10.8583C7.65278 10.7305 7.81111 10.6666 8 10.6666C8.18889 10.6666 8.34722 10.7305 8.475 10.8583C8.60278 10.9861 8.66667 11.1444 8.66667 11.3333C8.66667 11.5222 8.60278 11.6805 8.475 11.8083C8.34722 11.9361 8.18889 12 8 12ZM5.33333 12C5.14444 12 4.98611 11.9361 4.85833 11.8083C4.73056 11.6805 4.66667 11.5222 4.66667 11.3333C4.66667 11.1444 4.73056 10.9861 4.85833 10.8583C4.98611 10.7305 5.14444 10.6666 5.33333 10.6666C5.52222 10.6666 5.68056 10.7305 5.80833 10.8583C5.93611 10.9861 6 11.1444 6 11.3333C6 11.5222 5.93611 11.6805 5.80833 11.8083C5.68056 11.9361 5.52222 12 5.33333 12ZM10.6667 12C10.4778 12 10.3194 11.9361 10.1917 11.8083C10.0639 11.6805 10 11.5222 10 11.3333C10 11.1444 10.0639 10.9861 10.1917 10.8583C10.3194 10.7305 10.4778 10.6666 10.6667 10.6666C10.8556 10.6666 11.0139 10.7305 11.1417 10.8583C11.2694 10.9861 11.3333 11.1444 11.3333 11.3333C11.3333 11.5222 11.2694 11.6805 11.1417 11.8083C11.0139 11.9361 10.8556 12 10.6667 12ZM3 14.6666C2.73333 14.6666 2.5 14.5666 2.3 14.3666C2.1 14.1666 2 13.9333 2 13.6666V3.33331C2 3.06665 2.1 2.83331 2.3 2.63331C2.5 2.43331 2.73333 2.33331 3 2.33331H4.08333V1.86665C4.08333 1.71109 4.13333 1.58331 4.23333 1.48331C4.33333 1.38331 4.46111 1.33331 4.61667 1.33331C4.77222 1.33331 4.90278 1.38331 5.00833 1.48331C5.11389 1.58331 5.16667 1.71109 5.16667 1.86665V2.33331H10.8333V1.86665C10.8333 1.71109 10.8833 1.58331 10.9833 1.48331C11.0833 1.38331 11.2111 1.33331 11.3667 1.33331C11.5222 1.33331 11.6528 1.38331 11.7583 1.48331C11.8639 1.58331 11.9167 1.71109 11.9167 1.86665V2.33331H13C13.2667 2.33331 13.5 2.43331 13.7 2.63331C13.9 2.83331 14 3.06665 14 3.33331V13.6666C14 13.9333 13.9 14.1666 13.7 14.3666C13.5 14.5666 13.2667 14.6666 13 14.6666H3ZM3 13.6666H13V6.49998H3V13.6666Z" fill="#5B0E12"/>
</svg>
