<svg width="16" height="16" viewBox="0 0 16 16" fill="none" xmlns="http://www.w3.org/2000/svg">
<path d="M1.79997 10.4502L7.64997 4.60019C7.70552 4.54464 7.76108 4.50575 7.81663 4.48353C7.87219 4.46131 7.9333 4.4502 7.99997 4.4502C8.06663 4.4502 8.12775 4.46131 8.1833 4.48353C8.23886 4.50575 8.29441 4.54464 8.34997 4.60019L14.2 10.4502C14.3222 10.5724 14.3833 10.728 14.3833 10.9169C14.3833 11.1058 14.3222 11.2613 14.2 11.3835C14.0666 11.5169 13.9083 11.5835 13.725 11.5835C13.5416 11.5835 13.3833 11.5169 13.25 11.3835L7.99997 6.13353L2.74997 11.3835C2.60552 11.528 2.44441 11.5946 2.26663 11.5835C2.08886 11.5724 1.93886 11.5058 1.81663 11.3835C1.6833 11.2502 1.61663 11.0919 1.61663 10.9085C1.61663 10.7252 1.67775 10.5724 1.79997 10.4502Z" fill="white"/>
</svg>
