<svg width="24" height="24" viewBox="0 0 24 24" fill="none" xmlns="http://www.w3.org/2000/svg">
<path d="M3.475 22.0002C3.10833 22.0002 2.82917 21.8752 2.6375 21.6252C2.44583 21.3752 2.4 21.0669 2.5 20.7002C2.75 19.7335 2.95 18.7044 3.1 17.6127C3.25 16.521 3.34167 15.3419 3.375 14.0752C2.675 13.8585 2.10417 13.4252 1.6625 12.7752C1.22083 12.1252 1 11.4002 1 10.6002V9.9502C1 9.71686 1.075 9.4877 1.225 9.2627C1.375 9.0377 1.56667 8.88353 1.8 8.8002C3.95 7.9502 5.85833 6.90436 7.525 5.6627C9.19167 4.42103 10.4167 3.4502 11.2 2.7502C11.3167 2.6502 11.4458 2.5752 11.5875 2.5252C11.7292 2.4752 11.8667 2.4502 12 2.4502C12.1333 2.4502 12.2708 2.4752 12.4125 2.5252C12.5542 2.5752 12.6833 2.6502 12.8 2.7502C13.5833 3.4502 14.8083 4.42103 16.475 5.6627C18.1417 6.90436 20.05 7.9502 22.2 8.8002C22.4333 8.88353 22.625 9.0377 22.775 9.2627C22.925 9.4877 23 9.71686 23 9.9502V10.6002C23 11.4002 22.7833 12.1252 22.35 12.7752C21.9167 13.4252 21.35 13.8585 20.65 14.0752C20.6833 15.2919 20.7667 16.4502 20.9 17.5502C21.0333 18.6502 21.2333 19.7002 21.5 20.7002C21.6 21.0669 21.5583 21.3752 21.375 21.6252C21.1917 21.8752 20.9167 22.0002 20.55 22.0002H3.475ZM4.75 9.1002H19.25C18.0333 8.48353 16.825 7.75853 15.625 6.9252C14.425 6.09186 13.2167 5.13353 12 4.0502C10.85 5.08353 9.66667 6.0252 8.45 6.8752C7.23333 7.7252 6 8.46686 4.75 9.1002ZM14.575 12.7252C15.1083 12.7252 15.5417 12.5127 15.875 12.0877C16.2083 11.6627 16.375 11.1669 16.375 10.6002H12.75C12.75 11.1669 12.9208 11.6627 13.2625 12.0877C13.6042 12.5127 14.0417 12.7252 14.575 12.7252ZM9.45 12.7252C9.98333 12.7252 10.4167 12.5127 10.75 12.0877C11.0833 11.6627 11.25 11.1669 11.25 10.6002H7.625C7.625 11.1669 7.79583 11.6627 8.1375 12.0877C8.47917 12.5127 8.91667 12.7252 9.45 12.7252ZM4.325 12.7252C4.85833 12.7252 5.29167 12.5127 5.625 12.0877C5.95833 11.6627 6.125 11.1669 6.125 10.6002H2.5C2.5 11.1669 2.67083 11.6627 3.0125 12.0877C3.35417 12.5127 3.79167 12.7252 4.325 12.7252ZM4.125 20.5002H7.45C7.58333 19.6502 7.7 18.7252 7.8 17.7252C7.9 16.7252 7.99167 15.4835 8.075 14.0002C7.89167 13.9169 7.67917 13.771 7.4375 13.5627C7.19583 13.3544 7.03333 13.1585 6.95 12.9752C6.66667 13.3085 6.35417 13.5752 6.0125 13.7752C5.67083 13.9752 5.29167 14.1169 4.875 14.2002C4.825 15.4002 4.7375 16.5127 4.6125 17.5377C4.4875 18.5627 4.325 19.5502 4.125 20.5002ZM9 20.5002H15.025C14.8917 19.6335 14.7833 18.7002 14.7 17.7002C14.6167 16.7002 14.5417 15.5252 14.475 14.1752C13.925 14.1419 13.4208 14.0044 12.9625 13.7627C12.5042 13.521 12.1583 13.1919 11.925 12.7752C11.6917 13.1919 11.3667 13.521 10.95 13.7627C10.5333 14.0044 10.0667 14.1419 9.55 14.1752C9.48333 15.2419 9.4125 16.3002 9.3375 17.3502C9.2625 18.4002 9.15 19.4502 9 20.5002ZM16.55 20.5002H19.9C19.6667 19.4835 19.4917 18.4544 19.375 17.4127C19.2583 16.371 19.1833 15.3002 19.15 14.2002C18.75 14.1169 18.3958 13.9794 18.0875 13.7877C17.7792 13.596 17.4833 13.3252 17.2 12.9752C17.0333 13.2085 16.8333 13.4169 16.6 13.6002C16.3667 13.7835 16.15 13.9169 15.95 14.0002C16 14.9502 16.0708 15.9544 16.1625 17.0127C16.2542 18.071 16.3833 19.2335 16.55 20.5002ZM19.7 12.7252C20.2333 12.7252 20.6667 12.5127 21 12.0877C21.3333 11.6627 21.5 11.1669 21.5 10.6002H17.875C17.875 11.1669 18.0458 11.6627 18.3875 12.0877C18.7292 12.5127 19.1667 12.7252 19.7 12.7252Z" fill="#240507" fill-opacity="0.4"/>
</svg>
