<svg width="16" height="16" viewBox="0 0 16 16" fill="none" xmlns="http://www.w3.org/2000/svg">
<g clip-path="url(#clip0_1193_15646)">
<path d="M8.59998 12.8167L3.18331 7.4C3.09442 7.31111 3.01665 7.19167 2.94998 7.04167C2.88331 6.89167 2.84998 6.75556 2.84998 6.63333C2.84998 6.51111 2.88331 6.375 2.94998 6.225C3.01665 6.075 3.09442 5.95556 3.18331 5.86667L5.94998 3.11667C6.03887 3.02778 6.15831 2.94722 6.30831 2.875C6.45831 2.80278 6.59442 2.76667 6.71665 2.76667C6.83887 2.76667 6.97498 2.80278 7.12498 2.875C7.27498 2.94722 7.39443 3.02778 7.48331 3.11667L12.9 8.53333C12.9889 8.62222 13.0666 8.74167 13.1333 8.89167C13.2 9.04167 13.2333 9.17778 13.2333 9.3C13.2333 9.42222 13.2 9.55833 13.1333 9.70833C13.0666 9.85833 12.9889 9.97778 12.9 10.0667L10.1333 12.8167C10.0444 12.9056 9.92498 12.9861 9.77498 13.0583C9.62498 13.1306 9.48887 13.1667 9.36665 13.1667C9.24442 13.1667 9.10831 13.1306 8.95831 13.0583C8.80831 12.9861 8.68887 12.9056 8.59998 12.8167ZM9.36665 12.1667L12.2333 9.3L6.71665 3.76667L3.84998 6.63333L9.36665 12.1667ZM7.96665 16.0167C6.91109 16.0167 5.91387 15.8222 4.97498 15.4333C4.03609 15.0444 3.21109 14.5111 2.49998 13.8333C1.78887 13.1556 1.21387 12.3639 0.77498 11.4583C0.336091 10.5528 0.0833136 9.57778 0.016647 8.53333C0.00553585 8.4 0.0472025 8.28333 0.141647 8.18333C0.236091 8.08333 0.355536 8.03333 0.49998 8.03333C0.633314 8.03333 0.74998 8.08056 0.84998 8.175C0.94998 8.26944 1.00554 8.38889 1.01665 8.53333C1.13887 10.2111 1.78887 11.6528 2.96665 12.8583C4.14442 14.0639 5.56109 14.7444 7.21665 14.9L5.39998 13.0833C5.29998 12.9833 5.25276 12.8639 5.25831 12.725C5.26387 12.5861 5.31665 12.4667 5.41665 12.3667C5.51665 12.2667 5.63609 12.2167 5.77498 12.2167C5.91387 12.2167 6.03331 12.2667 6.13331 12.3667L8.84998 15.1C9.04998 15.3 9.11942 15.4917 9.05831 15.675C8.9972 15.8583 8.83331 15.9611 8.56665 15.9833C8.45554 15.9944 8.34998 16.0028 8.24998 16.0083C8.14998 16.0139 8.05554 16.0167 7.96665 16.0167ZM15.5 8.03333C15.3666 8.03333 15.25 7.98611 15.15 7.89167C15.05 7.79722 14.9944 7.67778 14.9833 7.53333C14.8611 5.85556 14.2194 4.41111 13.0583 3.2C11.8972 1.98889 10.4889 1.3 8.83331 1.13333L10.6166 2.91667C10.7166 3.01667 10.7666 3.13333 10.7666 3.26667C10.7666 3.4 10.7166 3.51667 10.6166 3.61667C10.5166 3.71667 10.3972 3.76667 10.2583 3.76667C10.1194 3.76667 9.99998 3.71667 9.89998 3.61667L7.16665 0.9C6.96665 0.7 6.8972 0.508333 6.95831 0.325C7.01942 0.141667 7.18331 0.0388889 7.44998 0.0166667C7.53887 0.00555556 7.62498 0 7.70831 0H7.96665C9.0222 0 10.0222 0.197222 10.9666 0.591667C11.9111 0.986111 12.7444 1.525 13.4666 2.20833C14.1889 2.89167 14.7722 3.68889 15.2166 4.6C15.6611 5.51111 15.9166 6.48889 15.9833 7.53333C15.9944 7.66667 15.9528 7.78333 15.8583 7.88333C15.7639 7.98333 15.6444 8.03333 15.5 8.03333Z" fill="white"/>
</g>
<defs>
<clipPath id="clip0_1193_15646">
<rect width="16" height="16" fill="white"/>
</clipPath>
</defs>
</svg>
