<svg width="18" height="12" viewBox="0 0 18 12" fill="none" xmlns="http://www.w3.org/2000/svg">
<path d="M6.975 12C6.75833 12 6.57917 11.925 6.4375 11.775C6.29583 11.625 6.225 11.4417 6.225 11.225C6.225 11.0083 6.29583 10.8292 6.4375 10.6875C6.57917 10.5458 6.75833 10.475 6.975 10.475H17.25C17.4667 10.475 17.6458 10.5458 17.7875 10.6875C17.9292 10.8292 18 11.0083 18 11.225C18 11.4417 17.9292 11.625 17.7875 11.775C17.6458 11.925 17.4667 12 17.25 12H6.975ZM0.75 1.5C0.533333 1.5 0.354167 1.42917 0.2125 1.2875C0.0708334 1.14583 0 0.966667 0 0.75C0 0.533333 0.0708334 0.354167 0.2125 0.2125C0.354167 0.0708334 0.533333 0 0.75 0H17.25C17.4667 0 17.6458 0.0708334 17.7875 0.2125C17.9292 0.354167 18 0.533333 18 0.75C18 0.966667 17.9292 1.14583 17.7875 1.2875C17.6458 1.42917 17.4667 1.5 17.25 1.5H0.75ZM6.975 6.75C6.75833 6.75 6.57917 6.67917 6.4375 6.5375C6.29583 6.39583 6.225 6.21667 6.225 6C6.225 5.78333 6.29583 5.60417 6.4375 5.4625C6.57917 5.32083 6.75833 5.25 6.975 5.25H17.25C17.4667 5.25 17.6458 5.32083 17.7875 5.4625C17.9292 5.60417 18 5.78333 18 6C18 6.21667 17.9292 6.39583 17.7875 6.5375C17.6458 6.67917 17.4667 6.75 17.25 6.75H6.975Z" fill="white"/>
</svg>
